<svg width="40" height="40" viewBox="0 0 40 40" fill="none" xmlns="http://www.w3.org/2000/svg">
<path d="M39.0229 16.9363L22.3562 0.936505C21.7312 0.33685 20.8837 0 20 0C19.1163 0 18.2688 0.33685 17.6438 0.936505L0.977103 16.9363C0.666071 17.2327 0.419517 17.5854 0.251778 17.9741C0.0840386 18.3628 -0.00153887 18.7796 2.09447e-05 19.2003V38.4C2.09447e-05 38.8244 0.175616 39.2313 0.488176 39.5314C0.800736 39.8314 1.22466 40 1.66669 40H15C15.442 40 15.866 39.8314 16.1785 39.5314C16.4911 39.2313 16.6667 38.8244 16.6667 38.4V27.2002H23.3333V38.4C23.3333 38.8244 23.5089 39.2313 23.8215 39.5314C24.134 39.8314 24.558 40 25 40H38.3333C38.7753 40 39.1993 39.8314 39.5118 39.5314C39.8244 39.2313 40 38.8244 40 38.4V19.2003C40.0015 18.7796 39.916 18.3628 39.7482 17.9741C39.5805 17.5854 39.3339 17.2327 39.0229 16.9363ZM36.6666 36.8H26.6667V25.6002C26.6667 25.1758 26.4911 24.7689 26.1785 24.4688C25.8659 24.1688 25.442 24.0002 25 24.0002H15C14.558 24.0002 14.1341 24.1688 13.8215 24.4688C13.5089 24.7689 13.3333 25.1758 13.3333 25.6002V36.8H3.33335V19.2003L20 3.20048L36.6666 19.2003V36.8Z" fill="#F5A700"/>
</svg>
