<svg width="40" height="40" viewBox="0 0 40 40" fill="none" xmlns="http://www.w3.org/2000/svg">
<path d="M14.1643 7.57326C12.231 7.6477 10.4833 8.3377 9.54882 9.27325C9.44559 9.37641 9.32305 9.45822 9.1882 9.51403C9.05335 9.56983 8.90882 9.59852 8.76288 9.59847C8.61694 9.59842 8.47244 9.56962 8.33762 9.51373C8.20281 9.45783 8.08033 9.37593 7.97717 9.27269C7.87401 9.16946 7.79219 9.04692 7.73639 8.91207C7.68059 8.77721 7.6519 8.63269 7.65195 8.48675C7.652 8.34081 7.68079 8.19631 7.73669 8.06149C7.79259 7.92668 7.87449 7.8042 7.97773 7.70104C9.41883 6.25994 11.7655 5.44217 14.0777 5.35217C16.4054 5.26217 18.9465 5.89883 20.7265 7.67882C20.9349 7.8873 21.0519 8.17002 21.0517 8.46476C21.0516 8.7595 20.9345 9.04213 20.726 9.25047C20.5175 9.45881 20.2348 9.5758 19.94 9.57569C19.6453 9.57559 19.3627 9.4584 19.1543 9.24991C17.9432 8.0377 16.0832 7.4977 14.1643 7.57215" fill="#F5A700"/>
<path fill-rule="evenodd" clip-rule="evenodd" d="M25.4843 23.7598C27.6874 21.1564 28.8939 17.8549 28.8887 14.4443C28.8887 6.46662 22.4221 0 14.4443 0C6.46662 0 0 6.46662 0 14.4443C0 22.4221 6.46662 28.8887 14.4443 28.8887C17.9943 28.8887 21.2443 27.6087 23.7598 25.4843L23.3332 27.9376L31.682 36.2864L36.2864 31.682L27.9376 23.3332L25.4843 23.7598ZM14.4443 25.5554C20.581 25.5554 25.5554 20.581 25.5554 14.4443C25.5554 8.30772 20.581 3.33331 14.4443 3.33331C8.30772 3.33331 3.33331 8.30772 3.33331 14.4443C3.33331 20.581 8.30772 25.5554 14.4443 25.5554Z" fill="#F5A700"/>
<path d="M33.2531 37.8575L37.8575 33.2531L39.3642 34.7598C40.212 35.6075 40.212 36.982 39.3642 37.8286L37.8286 39.3642C36.9809 40.2119 35.6064 40.2119 34.7598 39.3642L33.2531 37.8575Z" fill="#F5A700"/>
</svg>
