<svg width="40" height="40" viewBox="0 0 40 40" fill="none" xmlns="http://www.w3.org/2000/svg">
<path d="M20 34.8333L28.25 26.5833C29.8815 24.9517 30.9925 22.8729 31.4426 20.6098C31.8927 18.3467 31.6615 16.001 30.7785 13.8693C29.8954 11.7375 28.4001 9.91551 26.4815 8.63362C24.563 7.35172 22.3074 6.66751 20 6.66751C17.6926 6.66751 15.437 7.35172 13.5185 8.63362C11.5999 9.91551 10.1046 11.7375 9.22153 13.8693C8.33847 16.001 8.10736 18.3467 8.55743 20.6098C9.00749 22.8729 10.1185 24.9517 11.75 26.5833L20 34.8333ZM20 39.5467L9.39334 28.94C7.29557 26.8422 5.86698 24.1695 5.28821 21.2598C4.70945 18.35 5.00651 15.3341 6.14183 12.5932C7.27715 9.85229 9.19974 7.50962 11.6665 5.86141C14.1332 4.2132 17.0333 3.33347 20 3.33347C22.9667 3.33347 25.8668 4.2132 28.3335 5.86141C30.8003 7.50962 32.7229 9.85229 33.8582 12.5932C34.9935 15.3341 35.2906 18.35 34.7118 21.2598C34.133 24.1695 32.7044 26.8422 30.6067 28.94L20 39.5467ZM20 21.6667C20.8841 21.6667 21.7319 21.3155 22.357 20.6904C22.9822 20.0652 23.3333 19.2174 23.3333 18.3333C23.3333 17.4493 22.9822 16.6014 22.357 15.9763C21.7319 15.3512 20.8841 15 20 15C19.116 15 18.2681 15.3512 17.643 15.9763C17.0179 16.6014 16.6667 17.4493 16.6667 18.3333C16.6667 19.2174 17.0179 20.0652 17.643 20.6904C18.2681 21.3155 19.116 21.6667 20 21.6667ZM20 25C18.2319 25 16.5362 24.2976 15.286 23.0474C14.0357 21.7971 13.3333 20.1014 13.3333 18.3333C13.3333 16.5652 14.0357 14.8695 15.286 13.6193C16.5362 12.369 18.2319 11.6667 20 11.6667C21.7681 11.6667 23.4638 12.369 24.7141 13.6193C25.9643 14.8695 26.6667 16.5652 26.6667 18.3333C26.6667 20.1014 25.9643 21.7971 24.7141 23.0474C23.4638 24.2976 21.7681 25 20 25Z" fill="#F5A700"/>
</svg>
