<svg width="34" height="34" viewBox="0 0 34 34" fill="none" xmlns="http://www.w3.org/2000/svg">
<path d="M24.3695 9.63389C23.8124 9.07662 23.4862 8.32959 23.4562 7.5422C23.4261 6.7548 23.6944 5.98509 24.2074 5.38699C24.2498 5.33724 24.2719 5.2733 24.2692 5.20798C24.2664 5.14266 24.2391 5.08078 24.1927 5.03475L21.2375 2.07625C21.1887 2.02743 21.1224 2 21.0534 2C20.9843 2 20.9181 2.02743 20.8692 2.07625L16.1589 6.78655C15.9851 6.9603 15.8542 7.17215 15.7766 7.4053C15.6992 7.63899 15.5684 7.85145 15.3947 8.0258C15.2209 8.20016 15.0089 8.33162 14.7754 8.40977C14.5421 8.48752 14.3301 8.61841 14.156 8.79214L2.07625 20.8692C2.02743 20.9181 2 20.9843 2 21.0534C2 21.1224 2.02743 21.1887 2.07625 21.2375L5.0314 24.1927C5.07743 24.2391 5.13931 24.2664 5.20463 24.2692C5.26995 24.2719 5.3339 24.2498 5.38364 24.2074C5.98161 23.6939 6.7515 23.4251 7.53916 23.455C8.32683 23.4849 9.07414 23.8111 9.63151 24.3685C10.1889 24.9259 10.5151 25.6732 10.545 26.4608C10.5749 27.2485 10.3061 28.0184 9.79259 28.6164C9.75016 28.6661 9.7281 28.73 9.73084 28.7954C9.73357 28.8607 9.76089 28.9226 9.80732 28.9686L12.7625 31.9237C12.8113 31.9726 12.8776 32 12.9466 32C13.0157 32 13.0819 31.9726 13.1308 31.9237L25.2112 19.844C25.3849 19.6699 25.5158 19.4579 25.5936 19.2246C25.6709 18.9909 25.8017 18.7784 25.9755 18.6041C26.1493 18.4297 26.3613 18.2982 26.5947 18.2201C26.8279 18.1424 27.0397 18.0115 27.2135 17.8377L31.9237 13.1274C31.9726 13.0786 32 13.0123 32 12.9433C32 12.8742 31.9726 12.808 31.9237 12.7591L28.9686 9.80398C28.9226 9.75754 28.8607 9.73022 28.7954 9.72749C28.73 9.72476 28.6661 9.74682 28.6164 9.78924C28.0191 10.3031 27.2499 10.5726 26.4625 10.5438C25.6751 10.515 24.9276 10.19 24.3695 9.63389Z" stroke="white" stroke-width="4" stroke-miterlimit="10"/>
<path d="M16.6317 9.26156L15.5261 8.15598M19.5795 12.2093L18.8422 11.4727M22.5273 15.1578L21.7907 14.4205M25.844 18.4739L24.7385 17.3683" stroke="white" stroke-width="4" stroke-miterlimit="10" stroke-linecap="round"/>
</svg>
