<svg width="54" height="32" viewBox="0 0 54 32" fill="none" xmlns="http://www.w3.org/2000/svg">
<path fill-rule="evenodd" clip-rule="evenodd" d="M32.0071 5.24193C32.0071 8.1381 29.6199 10.4839 26.6726 10.4839C23.7253 10.4839 21.3381 8.1381 21.3381 5.24193C21.3381 2.34577 23.7253 0 26.6726 0C29.6199 0 32.0071 2.34577 32.0071 5.24193ZM29.3398 5.24193C29.3398 5.93706 29.0588 6.60371 28.5586 7.09524C28.0584 7.58676 27.38 7.8629 26.6726 7.8629C25.9652 7.8629 25.2867 7.58676 24.7865 7.09524C24.2863 6.60371 24.0053 5.93706 24.0053 5.24193C24.0053 4.54681 24.2863 3.88016 24.7865 3.38863C25.2867 2.8971 25.9652 2.62097 26.6726 2.62097C27.38 2.62097 28.0584 2.8971 28.5586 3.38863C29.0588 3.88016 29.3398 4.54681 29.3398 5.24193ZM18.6708 7.20766C18.6708 8.77169 18.0385 10.2717 16.9131 11.3776C15.7876 12.4835 14.2611 13.1048 12.6695 13.1048C11.8813 13.105 11.1008 12.9526 10.3727 12.6563C9.64446 12.36 8.98281 11.9256 8.4255 11.378C7.86819 10.8303 7.42614 10.1802 7.12461 9.46462C6.82308 8.74906 6.66797 7.98214 6.66814 7.20766C6.66814 3.9498 9.35407 1.31048 12.6695 1.31048C15.9849 1.31048 18.6708 3.9498 18.6708 7.20766ZM16.0035 7.20766C16.0035 9.01875 14.5125 10.4839 12.6695 10.4839C12.2316 10.484 11.798 10.3994 11.3934 10.2348C10.9888 10.0703 10.6212 9.82893 10.3115 9.52468C10.0019 9.22042 9.75633 8.85918 9.58884 8.46161C9.42134 8.06405 9.33523 7.63795 9.3354 7.20766C9.3354 5.39657 10.8264 3.93145 12.6695 3.93145C14.5125 3.93145 16.0035 5.39657 16.0035 7.20766ZM0 22.8745C0 18.1201 8.88597 15.7258 13.3363 15.7258C14.4045 15.7258 15.7288 15.8634 17.1238 16.1399C18.8482 14.8216 22.2356 13.1048 26.6726 13.1048C31.1096 13.1048 34.497 14.8216 36.2214 16.1399C37.6163 15.8647 38.9406 15.7258 40.0089 15.7258C44.4592 15.7258 53.3451 18.1201 53.3451 22.8732V31.4516H0V22.8745ZM2.66726 22.8745C2.66726 22.5639 2.79262 22.1511 3.35008 21.5981C3.93287 21.0215 4.85441 20.4396 6.06668 19.9194C8.50855 18.871 11.4759 18.3468 13.3363 18.3468C15.1967 18.3468 18.1667 18.871 20.6046 19.9194C21.8182 20.4396 22.7397 21.0228 23.3225 21.5981C23.88 22.1511 24.0053 22.5639 24.0053 22.8732V28.8306H2.66726V22.8745ZM32.7406 17.0953C30.8507 16.19 28.7751 15.7215 26.6726 15.7258C24.172 15.7258 22.0956 16.3745 20.6046 17.0953C23.8586 18.2708 26.6726 20.1985 26.6726 22.8745C26.6726 20.1985 29.4865 18.2708 32.7406 17.0953ZM30.0226 21.5981C29.4652 22.1511 29.3398 22.5639 29.3398 22.8732V28.8306H50.6779V22.8732C50.6779 22.5639 50.5525 22.1511 49.9951 21.5981C49.4123 21.0215 48.4907 20.4396 47.2785 19.9194C44.8366 18.871 41.8693 18.3468 40.0089 18.3468C38.1484 18.3468 35.1785 18.871 32.7406 19.9194C31.527 20.4396 30.6054 21.0228 30.0226 21.5981ZM40.6757 13.1048C43.9911 13.1048 46.677 10.4655 46.677 7.20766C46.677 3.9498 43.9911 1.31048 40.6757 1.31048C39.8875 1.31031 39.1071 1.46273 38.3789 1.75903C37.6507 2.05533 36.989 2.4897 36.4317 3.03734C35.8744 3.58498 35.4323 4.23515 35.1308 4.9507C34.8293 5.66626 34.6742 6.43318 34.6743 7.20766C34.6743 8.77169 35.3066 10.2717 36.4321 11.3776C37.5576 12.4835 39.084 13.1048 40.6757 13.1048ZM40.6757 10.4839C42.5187 10.4839 44.0097 9.01875 44.0097 7.20766C44.0097 5.39657 42.5187 3.93145 40.6757 3.93145C40.2378 3.93128 39.8042 4.0159 39.3996 4.18049C38.995 4.34507 38.6274 4.58639 38.3177 4.89065C38.0081 5.19491 37.7625 5.55614 37.595 5.95371C37.4275 6.35127 37.3414 6.77737 37.3416 7.20766C37.3416 9.01875 38.8326 10.4839 40.6757 10.4839Z" fill="white"/>
</svg>
